#!OML:ASF E:/inclinewalkrobotboard/Project1/Captureday1/Session1/subject1.ASF
:FULLY-SPECIFIED
:DEGREES
51
root 0 0 0 1.8452242341853489 -3.8948202696125405 2.1757387259630057
lowerback 11.986103354754086 1.1653013332174122 -0.09583298508557925
upperback -4.457557379742385 1.4651019905411613 -0.8554630850077171
thorax -11.566810934134537 0.6784670464903226 -1.1357060762040088
lowerneck -6.238927518638874 1.7527146491764773 4.833566446915976
upperneck 18.17683899550968 3.2861671196927924 -8.489141637818143
head 6.697724229234807 1.2227206979181502 -3.2933851237250282
rclavicle -2.152149338422112E-15 -1.1018179669366569E-15
rhumerus 23.262856227976457 17.84628719787498 -48.502124947318194
rradius 74.90306310243116
rwrist 25.812271671658984
rhand -34.81925418015039 -58.10415288614851
rfingers 7.12502
rthumb -7.962005874099672 -88.0147507289814
lclavicle -1.1169831953007904E-15 -8.409191167471946E-16
lhumerus 22.435682424507164 -14.545949362864402 45.766207905005174
lradius 71.34083047564256
lwrist -21.38581983373794
lhand -45.2724950478716 -69.02459964361762
lfingers 7.125020000000012
lthumb -18.046644182559575 -39.77642084293865
rfemur -24.517208389608655 -0.7806919541300683 18.60850663256044
rtibia 44.89053810382802
rfoot -33.04087399427897 -17.877527663754947
rtoes -23.04256612203108
lfemur -26.593288884381888 1.8298442752445259 -15.410940038599174
ltibia 44.98629250085489
lfoot -32.24608721717257 3.340349350713341
ltoes -21.495622284870784
52
root 0 0 0 1.8454397925802821 -3.8958532288911476 2.1758852546253995
lowerback 11.986058534741442 1.1658898255554577 -0.09550865215416626
upperback -4.457463368171163 1.4658983178319258 -0.8558364881224484
thorax -11.566683123733085 0.6788450587630396 -1.1363827319880353
lowerneck -6.239265169377864 1.7524110822102126 4.833305879503247
upperneck 18.177081502008367 3.2856637979154995 -8.488603089018138
head 6.697871506673306 1.222519662537036 -3.2932202062025446
rclavicle -2.1506311987822928E-15 -1.1019615091309486E-15
rhumerus 23.26496684686696 17.849242961721416 -48.504107003713315
rradius 74.9048188261783
rwrist 25.81010420552387
rhand -34.819227604604706 -58.103831357670764
rfingers 7.12502
rthumb -7.962005253340582 -88.01436832491217
lclavicle -1.1149919331751729E-15 -8.411967168226788E-16
lhumerus 22.435201993151843 -14.545233387811079 45.76607301910957
lradius 71.34026309729182
lwrist -21.38614687283249
lhand -45.272366891581484 -69.02463917943797
lfingers 7.125020000000012
lthumb -18.04652259410585 -39.77655115694783
rfemur -24.515838976682637 -0.7819793779469073 18.60640605027761
rtibia 44.899061484534705
rfoot -33.03508073232771 -17.876989862255883
rtoes -23.04392240232305
lfemur -26.591037883796012 1.8272510437902363 -15.418032011871519
ltibia 44.95146448395376
lfoot -32.27121539189853 3.3576467614248564
ltoes -21.49246799018639
53
root 0 0 0 1.845574204795137 -3.8957720481492304 2.177168821457729
lowerback 11.985952939362228 1.1658197619173483 -0.09657021950103617
upperback -4.4574605468881385 1.4656386800811938 -0.8561675228675459
thorax -11.566588690754728 0.6787542515780545 -1.136078362464272
lowerneck -6.239302379646608 1.7523046509516613 4.833078945452223
upperneck 18.17745205851581 3.2855200908931907 -8.488349284038595
head 6.698006279432386 1.2224591792290922 -3.2931353121351146
rclavicle -2.1496989996942426E-15 -1.1013150408816858E-15
rhumerus 23.26560023369587 17.850350868391274 -48.50502526734678
rradius 74.90533469357048
rwrist 25.809121754238795
rhand -34.81914365458495 -58.10341588291125
rfingers 7.12502
rthumb -7.961918429626861 -88.0138493156779
lclavicle -1.1143211625189422E-15 -8.400522679922337E-16
lhumerus 22.434630954923307 -14.544387149459686 45.76591457202528
lradius 71.33963161355831
lwrist -21.386514860368976
lhand -45.27232484296163 -69.02515563967621
lfingers 7.125020000000012
lthumb -18.046477487908657 -39.77691514641086
rfemur -24.52135614466051 -0.7860645290245278 18.600269143819197
rtibia 44.92126861426712
rfoot -33.02268176741046 -17.875713778802
rtoes -23.044082539987414
lfemur -26.573600468385372 1.821925928824141 -15.431629494364142
ltibia 44.90105928599727
lfoot -32.29661349923334 3.3740614115635132
ltoes -21.487948107833617
54
root 0 0 0 1.8459732424918895 -3.8942672134309726 2.175423022955317
lowerback 11.986135044998335 1.1648253552828791 -0.09607553209858966
upperback -4.457458630029116 1.4644572512791822 -0.8550887081185697
thorax -11.566791610162262 0.67818379159774 -1.1350090442580414
lowerneck -6.239597179061442 1.753053427106601 4.833871332563374
upperneck 18.176070289392356 3.286631102411759 -8.48965453754397
head 6.697545834012223 1.222901925270612 -3.2935753172150743
rclavicle -2.1596434532296943E-15 -1.0948074754183572E-15
rhumerus 23.257663841042024 17.8385331444004 -48.4972069124084
rradius 74.89798498893938
rwrist 25.817793061491876
rhand -34.81897148614466 -58.103497958933204
rfingers 7.12502
rthumb -7.962080345627166 -88.01498812891039
lclavicle -1.1172764244584743E-15 -8.343185672748172E-16
lhumerus 22.436315330603826 -14.543537661883457 45.76359083767635
lradius 71.34044242566974
lwrist -21.389228660457626
lhand -45.272573295082296 -69.02782483025851
lfingers 7.125020000000012
lthumb -18.0471358852484 -39.780648805641235
rfemur -24.520886102772323 -0.7772960262147359 18.616641354685413
rtibia 44.865926678435926
rfoot -33.06056387475299 -17.87791130857176
rtoes -23.035700473951422
lfemur -26.586847507954154 1.8294665439483184 -15.401183283243105
ltibia 45.01223098811768
lfoot -32.2103244477483 3.3209899877973994
ltoes -21.503899471062702
